<?xml version="1.0" encoding="UTF-8" standalone="no"?>
<!-- Created with Inkscape (http://www.inkscape.org/) -->

<svg
   xmlns:dc="http://purl.org/dc/elements/1.1/"
   xmlns:cc="http://creativecommons.org/ns#"
   xmlns:rdf="http://www.w3.org/1999/02/22-rdf-syntax-ns#"
   xmlns:svg="http://www.w3.org/2000/svg"
   xmlns="http://www.w3.org/2000/svg"
   xmlns:sodipodi="http://sodipodi.sourceforge.net/DTD/sodipodi-0.dtd"
   xmlns:inkscape="http://www.inkscape.org/namespaces/inkscape"
   width="139.61397mm"
   height="41.311394mm"
   viewBox="0 0 139.61397 41.311394"
   version="1.1"
   id="svg8"
   inkscape:version="0.92.3 (2405546, 2018-03-11)"
   sodipodi:docname="seasonly logo.svg"
   inkscape:export-filename="C:\Users\Robert Thompson\Desktop\BLACK_SAMPLE.png"
   inkscape:export-xdpi="96"
   inkscape:export-ydpi="96">
  <defs
     id="defs2" />
  <sodipodi:namedview
     id="base"
     pagecolor="#000000"
     bordercolor="#666666"
     borderopacity="1.0"
     inkscape:pageopacity="0"
     inkscape:pageshadow="2"
     inkscape:zoom="0.7"
     inkscape:cx="270.16417"
     inkscape:cy="33.179086"
     inkscape:document-units="mm"
     inkscape:current-layer="svg8"
     showgrid="false"
     inkscape:window-width="1920"
     inkscape:window-height="1057"
     inkscape:window-x="-8"
     inkscape:window-y="-8"
     inkscape:window-maximized="1"
     inkscape:pagecheckerboard="true"
     fit-margin-top="0"
     fit-margin-left="0"
     fit-margin-right="0"
     fit-margin-bottom="0" />
  <metadata
     id="metadata5">
    <rdf:RDF>
      <cc:Work
         rdf:about="">
        <dc:format>image/svg+xml</dc:format>
        <dc:type
           rdf:resource="http://purl.org/dc/dcmitype/StillImage" />
        <dc:title></dc:title>
      </cc:Work>
    </rdf:RDF>
  </metadata>
  <g
     inkscape:groupmode="layer"
     id="layer4"
     inkscape:label="Layer 4"
     transform="translate(-31.902235,-132.62866)" />
  <g
     inkscape:label="Layer 1"
     inkscape:groupmode="layer"
     id="layer1"
     transform="translate(-31.902235,-132.62866)">
    <path
       style="fill:#ffffff;stroke-width:0.69406956"
       d="m 156.79589,170.01845 c -0.25343,-0.25548 -0.46086,-1.19627 -0.46086,-2.09057 0,-1.1551 0.39578,-1.626 1.36665,-1.626 0.75168,0 1.82857,-0.71065 2.39314,-1.57922 0.94459,-1.45322 0.7804,-2.29084 -2.05794,-10.49953 -1.69644,-4.9062 -3.08445,-9.23277 -3.08445,-9.61465 0,-0.38187 0.98575,-0.59605 2.19054,-0.47595 2.10098,0.20938 2.26589,0.46049 4.0345,6.14166 l 1.84398,5.92326 1.88333,-6.09749 1.88331,-6.09749 h 2.36405 2.36406 l -4.13412,12.00123 c -2.27376,6.60068 -2.79208,9.8225 -3.47267,10.83056 -1.13615,1.68281 -1.57924,2.00082 -2.701,2.58558 -2.18984,1.14154 -3.67417,1.34289 -4.41252,0.59861 z M 35.585969,162.49861 c -2.076937,-0.91071 -3.683734,-2.87932 -3.683734,-4.51319 0,-1.34175 3.768962,-0.81728 4.678621,0.65105 1.034262,1.66942 4.431924,1.87747 5.690779,0.34842 1.25862,-1.52875 -0.0052,-2.6951 -4.053283,-3.74095 -5.072233,-1.31044 -6.81957,-3.82874 -5.256589,-7.57595 1.215012,-2.91285 5.280497,-4.26794 9.227883,-3.07576 2.945393,0.88957 3.974952,1.82485 4.336898,3.93981 0.354944,2.07406 -3.184382,2.3648 -4.254334,0.34948 -0.593646,-1.11817 -1.31746,-1.42404 -2.984506,-1.26125 -1.8125,0.17699 -2.451321,0.51422 -2.451321,1.91151 0,1.45343 0.745971,1.8234 3.707014,2.58108 7.190792,1.84002 8.77261,7.87095 2.731748,10.4153 -2.895542,1.21958 -4.8577,1.21204 -7.689176,-0.0295 z m 19.128946,-0.20465 c -3.379373,-1.70179 -5.021206,-5.15733 -4.54733,-9.57082 0.678273,-6.31723 5.274671,-9.76546 10.794731,-8.0983 3.286045,0.99246 4.862873,3.18015 5.334895,7.4016 l 0.349509,3.12582 h -5.965903 c -4.536617,0 -5.965902,0.22466 -5.965902,0.93728 0,2.63822 6.136568,4.4446 8.162216,2.40266 0.65178,-0.65704 1.078339,-0.5954 1.948285,0.28155 1.396103,1.40736 0.740352,2.51856 -2.222808,3.7666 -3.055286,1.28685 -4.961191,1.22733 -7.887693,-0.24652 z m 7.604235,-11.02022 c 0,-0.21676 -0.322023,-1.00082 -0.71561,-1.74215 -1.304029,-2.4562 -6.888625,-1.45865 -6.888625,1.23045 0,0.63351 1.143292,0.90592 3.802117,0.90592 2.091177,0 3.802118,-0.17752 3.802118,-0.39422 z m 9.514059,11.14999 c -2.179357,-1.19203 -3.076788,-3.87388 -2.17455,-6.49827 0.771523,-2.24412 4.570636,-4.25497 8.041769,-4.25642 2.839918,-8.5e-4 3.409368,-1.16848 1.506022,-3.08714 -1.370629,-1.38166 -3.348829,-1.40265 -4.690901,-0.0498 -1.351843,1.36272 -4.592164,1.38187 -4.592164,0.0271 0,-1.65218 2.729004,-3.73118 5.522151,-4.20688 3.020353,-0.5144 7.14361,0.94825 8.17875,2.90126 0.37271,0.70316 0.78661,4.49304 0.91978,8.42196 l 0.2422,7.14345 -2.24672,-6.9e-4 c -1.23567,-3.6e-4 -2.24668,-0.32229 -2.24668,-0.71541 0,-0.40971 -0.87047,-0.26101 -2.039578,0.34843 -2.517109,1.31212 -3.982084,1.30583 -6.42,-0.0277 z m 6.923167,-3.47829 c 0.87483,-0.61767 1.53641,-1.81795 1.53641,-2.78742 0,-1.47453 -0.31753,-1.70261 -2.370169,-1.70261 -3.773926,0 -6.017531,3.24598 -3.333022,4.82218 1.669529,0.98022 2.389344,0.92283 4.166781,-0.33215 z m 12.82435,3.55325 c -2.07694,-0.91072 -3.68373,-2.87931 -3.68373,-4.51319 0,-1.34175 3.76896,-0.81729 4.67862,0.65105 1.03426,1.66943 4.43192,1.87747 5.69078,0.34843 1.19045,-1.44596 -0.14815,-2.97 -3.09874,-3.528 -1.24769,-0.23598 -3.23847,-1.02359 -4.42395,-1.75034 -4.18617,-2.56625 -2.26192,-8.40102 3.10534,-9.41603 4.12699,-0.78044 9.256424,2.04205 9.256424,5.09341 0,1.52341 -4.000774,1.07551 -4.860694,-0.54417 -1.08703,-2.04751 -5.07141,-1.65423 -5.37977,0.531 -0.18655,1.32277 0.32594,1.69463 3.69844,2.68294 2.15333,0.63103 4.506184,1.74312 5.228574,2.47133 2.5069,2.52707 1.28671,6.39888 -2.522114,8.00312 -2.89554,1.21958 -4.85771,1.21204 -7.68918,-0.0295 z m 19.346504,-0.005 c -2.84641,-1.24794 -4.36532,-4.28765 -4.36532,-8.73605 0,-4.55633 1.36893,-7.16938 4.55407,-8.693 3.62299,-1.73306 6.97509,-1.03511 9.79028,2.03847 1.97862,2.16026 2.24669,2.91943 2.24669,6.36258 0,4.66155 -1.43939,7.49508 -4.5675,8.99141 -2.70108,1.29206 -4.77208,1.30197 -7.65822,0.0366 z m 7.00184,-4.70995 c 0.59187,-0.85183 1.07612,-2.66356 1.07612,-4.0261 0,-3.36258 -1.64594,-5.57483 -4.14776,-5.57483 -2.50179,0 -4.14776,2.21225 -4.14776,5.57483 0,1.36254 0.48428,3.17427 1.07614,4.0261 1.44222,2.07563 4.70101,2.07563 6.14326,0 z m 9.37164,-4.37452 v -9.40756 h 2.07388 c 1.37253,0 2.07388,0.34966 2.07388,1.034 0,0.89257 0.32597,0.87732 2.38282,-0.11141 3.02285,-1.45311 6.54587,-0.59961 7.7948,1.88838 0.51994,1.03579 0.86673,4.5564 0.8729,8.86138 l 0.0104,7.14279 h -2.07388 -2.07388 v -5.96911 c 0,-6.9574 -0.65871,-8.66488 -3.34254,-8.66488 -3.09424,0 -3.57041,1.08733 -3.57041,8.15321 v 6.48078 h -2.07388 -2.07388 z m 20.04751,-3.83272 v -13.24037 h 2.07389 2.07387 v 13.24027 13.2403 h -2.07387 -2.07389 z"
       id="path826"
       inkscape:connector-curvature="0"
       sodipodi:nodetypes="cssccscscccccsssccsccccccscscccccccccsscccccscssscccccscccccsccccsscccscccccsccccccccsccsscccsssccccssccccccsssccccccccccccc" />
    <path
       style="opacity:0;fill:#ffffff;fill-opacity:1;stroke:#ffffff;stroke-width:0;stroke-miterlimit:4;stroke-dasharray:none;stroke-dashoffset:0;stroke-opacity:1"
       d="m 56.386473,162.92423 c -1.781913,-0.62912 -2.865498,-1.32392 -4.035308,-2.58745 -1.613339,-1.7426 -2.324386,-4.06508 -2.138797,-6.98592 0.257252,-4.04866 2.313073,-7.41904 5.194814,-8.51655 2.923452,-1.1134 6.73545,-0.33616 8.67587,1.76895 1.272532,1.38053 1.78698,2.72571 2.136161,5.58563 0.109757,0.89894 0.243194,1.91084 0.296529,2.24865 l 0.09697,0.61421 -4.308043,0.006 c -4.411372,0.006 -6.900281,0.20296 -7.357348,0.58229 -0.636389,0.52816 -0.07779,1.7018 1.227156,2.57831 1.224671,0.82259 2.806229,1.23675 4.382637,1.14768 1.088922,-0.0615 1.419299,-0.16809 2.15152,-0.69393 1.009468,-0.72495 1.33676,-0.68435 2.174418,0.26969 1.06713,1.21539 0.642781,2.08638 -1.540976,3.16288 -2.689828,1.32598 -4.812966,1.57619 -6.955605,0.81972 z m 5.84766,-11.56141 c 0.249407,-0.25006 -0.521976,-1.92413 -1.141437,-2.47715 -1.894951,-1.6917 -6.399043,-0.43866 -6.402654,1.78123 -0.0013,0.79918 0.86011,0.98693 4.289832,0.93497 1.763184,-0.0267 3.143621,-0.12812 3.254259,-0.23905 z"
       id="path1564"
       inkscape:connector-curvature="0" />
    <path
       style="opacity:0;fill:#ffffff;fill-opacity:1;stroke:#ffffff;stroke-width:0;stroke-miterlimit:4;stroke-dasharray:none;stroke-dashoffset:0;stroke-opacity:1"
       d="m 56.386473,162.92423 c -1.781913,-0.62912 -2.865498,-1.32392 -4.035308,-2.58745 -1.613339,-1.7426 -2.324386,-4.06508 -2.138797,-6.98592 0.257252,-4.04866 2.313073,-7.41904 5.194814,-8.51655 2.923452,-1.1134 6.73545,-0.33616 8.67587,1.76895 1.272532,1.38053 1.78698,2.72571 2.136161,5.58563 0.109757,0.89894 0.243194,1.91084 0.296529,2.24865 l 0.09697,0.61421 -4.308043,0.006 c -4.411372,0.006 -6.900281,0.20296 -7.357348,0.58229 -0.636389,0.52816 -0.07779,1.7018 1.227156,2.57831 1.224671,0.82259 2.806229,1.23675 4.382637,1.14768 1.088922,-0.0615 1.419299,-0.16809 2.15152,-0.69393 1.009468,-0.72495 1.33676,-0.68435 2.174418,0.26969 1.06713,1.21539 0.642781,2.08638 -1.540976,3.16288 -2.689828,1.32598 -4.812966,1.57619 -6.955605,0.81972 z m 5.84766,-11.56141 c 0.249407,-0.25006 -0.521976,-1.92413 -1.141437,-2.47715 -1.894951,-1.6917 -6.399043,-0.43866 -6.402654,1.78123 -0.0013,0.79918 0.86011,0.98693 4.289832,0.93497 1.763184,-0.0267 3.143621,-0.12812 3.254259,-0.23905 z"
       id="path1566"
       inkscape:connector-curvature="0" />
    <path
       style="opacity:0;fill:#ffffff;fill-opacity:1;stroke:#ffffff;stroke-width:0;stroke-miterlimit:4;stroke-dasharray:none;stroke-dashoffset:0;stroke-opacity:1"
       d="m 56.386473,162.92423 c -1.781913,-0.62912 -2.865498,-1.32392 -4.035308,-2.58745 -1.613339,-1.7426 -2.324386,-4.06508 -2.138797,-6.98592 0.257252,-4.04866 2.313073,-7.41904 5.194814,-8.51655 2.923452,-1.1134 6.73545,-0.33616 8.67587,1.76895 1.272532,1.38053 1.78698,2.72571 2.136161,5.58563 0.109757,0.89894 0.243194,1.91084 0.296529,2.24865 l 0.09697,0.61421 -4.308043,0.006 c -4.411372,0.006 -6.900281,0.20296 -7.357348,0.58229 -0.636389,0.52816 -0.07779,1.7018 1.227156,2.57831 1.224671,0.82259 2.806229,1.23675 4.382637,1.14768 1.088922,-0.0615 1.419299,-0.16809 2.15152,-0.69393 1.009468,-0.72495 1.33676,-0.68435 2.174418,0.26969 1.06713,1.21539 0.642781,2.08638 -1.540976,3.16288 -2.689828,1.32598 -4.812966,1.57619 -6.955605,0.81972 z m 5.84766,-11.56141 c 0.249407,-0.25006 -0.521976,-1.92413 -1.141437,-2.47715 -1.894951,-1.6917 -6.399043,-0.43866 -6.402654,1.78123 -0.0013,0.79918 0.86011,0.98693 4.289832,0.93497 1.763184,-0.0267 3.143621,-0.12812 3.254259,-0.23905 z"
       id="path1568"
       inkscape:connector-curvature="0" />
    <path
       style="opacity:0;fill:#ffffff;fill-opacity:1;stroke:#ffffff;stroke-width:0;stroke-miterlimit:4;stroke-dasharray:none;stroke-dashoffset:0;stroke-opacity:1"
       d="m 56.386473,162.92423 c -1.781913,-0.62912 -2.865498,-1.32392 -4.035308,-2.58745 -1.613339,-1.7426 -2.324386,-4.06508 -2.138797,-6.98592 0.257252,-4.04866 2.313073,-7.41904 5.194814,-8.51655 2.923452,-1.1134 6.73545,-0.33616 8.67587,1.76895 1.272532,1.38053 1.78698,2.72571 2.136161,5.58563 0.109757,0.89894 0.243194,1.91084 0.296529,2.24865 l 0.09697,0.61421 -4.308043,0.006 c -4.411372,0.006 -6.900281,0.20296 -7.357348,0.58229 -0.636389,0.52816 -0.07779,1.7018 1.227156,2.57831 1.224671,0.82259 2.806229,1.23675 4.382637,1.14768 1.088922,-0.0615 1.419299,-0.16809 2.15152,-0.69393 1.009468,-0.72495 1.33676,-0.68435 2.174418,0.26969 1.06713,1.21539 0.642781,2.08638 -1.540976,3.16288 -2.689828,1.32598 -4.812966,1.57619 -6.955605,0.81972 z m 5.84766,-11.56141 c 0.249407,-0.25006 -0.521976,-1.92413 -1.141437,-2.47715 -1.894951,-1.6917 -6.399043,-0.43866 -6.402654,1.78123 -0.0013,0.79918 0.86011,0.98693 4.289832,0.93497 1.763184,-0.0267 3.143621,-0.12812 3.254259,-0.23905 z"
       id="path1570"
       inkscape:connector-curvature="0" />
    <path
       style="opacity:0;fill:#ffffff;fill-opacity:1;stroke:#ffffff;stroke-width:0;stroke-miterlimit:4;stroke-dasharray:none;stroke-dashoffset:0;stroke-opacity:1"
       d="m 73.151217,162.91837 c -2.6122,-1.10206 -3.722323,-2.56987 -3.719756,-4.91826 0.0024,-2.10085 0.839134,-3.48379 2.833767,-4.68302 1.53235,-0.92129 2.709719,-1.26812 5.323398,-1.56817 2.801151,-0.32157 3.379337,-0.89749 2.377868,-2.36857 -0.797922,-1.17207 -1.733761,-1.76172 -2.932218,-1.8475 -0.999416,-0.0715 -1.157335,-0.025 -2.028719,0.59724 -1.34474,0.96032 -2.089621,1.27177 -3.091757,1.29273 -1.187884,0.0248 -1.705462,-0.17081 -1.836875,-0.69441 -0.151537,-0.60378 0.295339,-1.38897 1.336918,-2.34907 1.022988,-0.94295 2.399586,-1.59851 4.03048,-1.91937 2.673864,-0.52605 6.741023,0.79999 7.905721,2.57754 0.604007,0.92183 0.980615,4.75747 1.283274,13.06967 l 0.09806,2.69309 -1.272135,-0.005 c -1.552802,-0.005 -2.701803,-0.25406 -2.988804,-0.64656 -0.326216,-0.44612 -0.90864,-0.35935 -2.599442,0.3873 -2.049621,0.90509 -3.249496,1.00218 -4.719777,0.38188 z m 4.98289,-3.49326 c 1.497242,-0.96288 2.25761,-2.14736 2.25761,-3.51684 0,-1.29037 -1.267677,-1.8077 -3.466859,-1.41479 -2.126965,0.38001 -3.5257,1.59367 -3.5257,3.05919 0,0.8315 0.515292,1.4982 1.556173,2.01343 1.13965,0.56411 2.1522,0.5192 3.178776,-0.14099 z"
       id="path1572"
       inkscape:connector-curvature="0" />
    <path
       style="opacity:0;fill:#ffffff;fill-opacity:1;stroke:#ffffff;stroke-width:0;stroke-miterlimit:4;stroke-dasharray:none;stroke-dashoffset:0;stroke-opacity:1"
       d="m 93.471484,163.07322 c -2.397173,-0.64525 -4.418666,-2.11854 -5.166942,-3.76573 -0.704303,-1.5504 -0.282761,-2.1115 1.451821,-1.93247 1.253099,0.12933 2.061774,0.54724 3.014073,1.55763 0.605028,0.64194 0.968076,0.84889 1.818428,1.03658 1.399016,0.3088 2.776352,0.003 3.573407,-0.79449 1.226222,-1.22622 0.368874,-2.83323 -1.853139,-3.47352 -4.69065,-1.35165 -6.413677,-2.27397 -7.227245,-3.86869 -1.254265,-2.45857 0.0082,-5.37156 2.95714,-6.82333 2.839035,-1.39765 6.955832,-0.71199 9.444183,1.57296 0.85653,0.78651 1.5743,1.98575 1.58293,2.64471 0.008,0.61383 -0.53753,0.9114 -1.663,0.90704 -1.35251,-0.005 -2.43035,-0.48386 -3.117052,-1.38417 -0.692706,-0.90819 -1.410242,-1.25751 -2.583021,-1.25751 -1.724504,0 -2.637526,0.63317 -2.929009,2.03123 -0.211283,1.01339 0.510392,1.54348 3.400131,2.4975 3.250951,1.07326 5.267671,2.11726 5.974301,3.09273 2.22179,3.0671 0.0141,6.70249 -4.834799,7.96115 -1.369607,0.35552 -2.51719,0.35504 -3.842207,-0.002 z"
       id="path1574"
       inkscape:connector-curvature="0" />
    <path
       style="opacity:0;fill:#ffffff;fill-opacity:1;stroke:#ffffff;stroke-width:0;stroke-miterlimit:4;stroke-dasharray:none;stroke-dashoffset:0;stroke-opacity:1"
       d="m 112.99216,163.10165 c -4.14464,-1.02385 -6.02137,-3.57476 -6.27614,-8.53074 -0.22581,-4.39256 0.8403,-7.14471 3.4114,-8.80649 2.49528,-1.61278 5.51792,-1.93204 7.80464,-0.82437 1.28684,0.62334 3.97049,3.19522 4.47839,4.29186 0.54492,1.1766 0.74445,2.75732 0.62726,4.9694 -0.22124,4.17612 -1.55026,6.65331 -4.31951,8.05122 -2.08817,1.05411 -3.8429,1.31432 -5.72604,0.84912 z m 3.78971,-4.20211 c 1.93959,-1.00287 2.88302,-4.97349 1.86637,-7.85498 -1.33309,-3.77838 -5.8355,-3.95358 -7.47047,-0.29071 -0.37002,0.82897 -0.44119,1.29901 -0.43616,2.88049 0.009,2.8895 0.74041,4.53767 2.38355,5.37261 1.00391,0.51013 2.55022,0.4647 3.65671,-0.10741 z"
       id="path1576"
       inkscape:connector-curvature="0" />
    <path
       style="opacity:0;fill:#00ffff;fill-opacity:1;stroke:#ffffff;stroke-width:0;stroke-miterlimit:4;stroke-dasharray:none;stroke-dashoffset:0;stroke-opacity:1"
       d="m 56.386473,162.92423 c -1.781913,-0.62912 -2.865498,-1.32392 -4.035308,-2.58745 -1.613339,-1.7426 -2.324386,-4.06508 -2.138797,-6.98592 0.257252,-4.04866 2.313073,-7.41904 5.194814,-8.51655 2.923452,-1.1134 6.73545,-0.33616 8.67587,1.76895 1.272532,1.38053 1.78698,2.72571 2.136161,5.58563 0.109757,0.89894 0.243194,1.91084 0.296529,2.24865 l 0.09697,0.61421 -4.308043,0.006 c -4.411372,0.006 -6.900281,0.20296 -7.357348,0.58229 -0.636389,0.52816 -0.07779,1.7018 1.227156,2.57831 1.224671,0.82259 2.806229,1.23675 4.382637,1.14768 1.088922,-0.0615 1.419299,-0.16809 2.15152,-0.69393 1.009468,-0.72495 1.33676,-0.68435 2.174418,0.26969 1.06713,1.21539 0.642781,2.08638 -1.540976,3.16288 -2.689828,1.32598 -4.812966,1.57619 -6.955605,0.81972 z m 5.84766,-11.56141 c 0.249407,-0.25006 -0.521976,-1.92413 -1.141437,-2.47715 -1.894951,-1.6917 -6.399043,-0.43866 -6.402654,1.78123 -0.0013,0.79918 0.86011,0.98693 4.289832,0.93497 1.763184,-0.0267 3.143621,-0.12812 3.254259,-0.23905 z"
       id="path1578"
       inkscape:connector-curvature="0" />
    <path
       style="opacity:0;fill:#00ffff;fill-opacity:1;stroke:#ffffff;stroke-width:0;stroke-miterlimit:4;stroke-dasharray:none;stroke-dashoffset:0;stroke-opacity:1"
       d="m 64.516759,168.89513 c 2.7e-5,-0.0779 -4.284892,-0.11895 -9.522039,-0.0911 l -9.522084,0.0506 3.14294,-15.59491 3.142941,-15.59491 h 9.389051 c 8.783037,0 9.394632,0.0214 9.475481,0.33073 0.08231,0.31498 0.08747,0.31498 0.108352,0 0.02072,-0.31261 1.04721,-0.33073 18.731743,-0.33073 10.290402,0 18.709826,0.0653 18.709826,0.14509 0,0.15134 -5.96315,30.05718 -6.14179,30.80171 l -0.10202,0.42522 H 83.222938 c -10.28842,0 -18.706203,-0.0638 -18.706179,-0.14174 z m 0.129059,-1.02762 c -0.06033,-0.15076 -0.105114,-0.10598 -0.114181,0.11418 -0.0082,0.19922 0.03646,0.31085 0.09926,0.24805 0.0628,-0.0628 0.06951,-0.22581 0.01492,-0.36223 z m 0.188986,-0.94494 c -0.06033,-0.15076 -0.105111,-0.10598 -0.114178,0.11418 -0.0082,0.19922 0.03646,0.31085 0.09926,0.24805 0.0628,-0.0628 0.06951,-0.22581 0.0149,-0.36223 z m 0.18899,-0.94494 c -0.06033,-0.15076 -0.105111,-0.10598 -0.114181,0.11418 -0.0082,0.19922 0.03646,0.31084 0.09926,0.24805 0.0628,-0.0628 0.06951,-0.22581 0.01492,-0.36223 z m 0.188986,-0.94494 c -0.06033,-0.15076 -0.105111,-0.10598 -0.114178,0.11418 -0.0082,0.19922 0.03646,0.31085 0.09926,0.24805 0.0628,-0.0628 0.06951,-0.22581 0.01492,-0.36223 z m 0.188989,-0.94494 c -0.06033,-0.15076 -0.105111,-0.10598 -0.114178,0.11418 -0.0082,0.19922 0.03646,0.31085 0.09926,0.24805 0.0628,-0.0628 0.06951,-0.22581 0.01492,-0.36223 z m -3.826954,-1.09684 c 1.71563,-0.57471 3.362936,-1.55744 3.765735,-2.24649 0.301035,-0.51498 0.317825,-0.68203 0.117226,-1.16632 -0.446696,-1.07842 -1.978109,-1.92898 -2.360139,-1.31085 -0.06516,0.10543 -0.468423,0.37022 -0.896146,0.58843 -1.124357,0.57361 -3.565094,0.44621 -5.118113,-0.26715 -1.348134,-0.61925 -2.205053,-1.48477 -2.205053,-2.2272 0,-0.95062 0.342161,-1.01148 6.284684,-1.11783 2.988832,-0.0535 5.445498,-0.16209 5.459262,-0.24134 0.06573,-0.37843 -0.267417,-3.2218 -0.524153,-4.47363 -0.749162,-3.65284 -2.797527,-5.60261 -6.577451,-6.26085 -3.316034,-0.57746 -6.627522,1.17782 -8.23694,4.36605 -1.580221,3.1304 -1.655442,7.41066 -0.178916,10.1809 1.086837,2.03912 3.338552,3.74096 5.904261,4.46244 1.231062,0.34618 3.011147,0.23461 4.565743,-0.28616 z m 4.015941,0.1519 c -0.06033,-0.15076 -0.105111,-0.10598 -0.114178,0.11418 -0.0082,0.19922 0.03646,0.31084 0.09926,0.24805 0.0628,-0.0628 0.06951,-0.22581 0.01492,-0.36223 z m 9.842227,0.28356 c -0.180689,-0.0473 -0.520869,-0.049 -0.755951,-0.004 -0.235085,0.0452 -0.08725,0.0839 0.328525,0.086 0.415774,0.002 0.608116,-0.0349 0.427426,-0.0822 z m 20.505603,-0.003 c -0.232445,-0.0449 -0.657667,-0.046 -0.944941,-0.003 -0.287272,0.0434 -0.09709,0.0801 0.422624,0.0816 0.519718,0.001 0.754761,-0.0341 0.522317,-0.079 z m -22.791732,-0.51835 c -1.084054,-0.44573 -2.578471,-1.36716 -2.58672,-1.59493 -0.0024,-0.0638 -0.179494,-0.32865 -0.393737,-0.58851 l -0.389536,-0.47247 0.34649,0.63616 c 0.190569,0.34988 0.602242,0.83323 0.914826,1.07412 0.67372,0.51917 2.525014,1.40544 2.927946,1.40169 0.155913,-0.002 -0.212757,-0.20668 -0.819269,-0.45606 z m 4.601646,-0.13179 c 0.730875,-0.3268 1.292318,-0.63073 1.247648,-0.67539 -0.04466,-0.0447 -0.365508,0.0661 -0.712986,0.24625 -0.347474,0.1801 -1.056997,0.48097 -1.576713,0.66858 -0.519718,0.18761 -0.796861,0.34417 -0.615876,0.34793 0.180989,0.004 0.927055,-0.26057 1.657927,-0.58737 z m 16.486595,0.46902 c -0.129929,-0.0524 -0.34254,-0.0524 -0.472472,0 -0.129929,0.0524 -0.02363,0.0953 0.236236,0.0953 0.259858,0 0.366165,-0.0429 0.236236,-0.0953 z m 4.533675,-0.43721 c 0.596553,-0.22451 1.48456,-0.68379 1.97334,-1.02063 0.85343,-0.58813 2.14822,-2.1939 2.13084,-2.64262 -0.005,-0.11858 -0.168,0.0863 -0.36312,0.45534 -0.78737,1.4891 -2.713059,2.80175 -5.109186,3.48269 -0.688324,0.19561 -0.816001,0.26803 -0.377976,0.2144 0.363802,-0.0445 1.149549,-0.26467 1.746102,-0.48918 z m -6.459186,-0.11307 c -1.922057,-0.73921 -3.267508,-1.88211 -3.988207,-3.3878 -0.199009,-0.41577 -0.363704,-0.61674 -0.365987,-0.44658 -0.0072,0.53669 1.187288,2.1093 2.15615,2.83869 0.90773,0.68337 2.56105,1.45458 3.131367,1.46065 0.155914,0.002 -0.26408,-0.20757 -0.933323,-0.46496 z m -10.963692,-0.0838 c -0.358725,-0.0845 -0.750801,-0.28836 -0.871284,-0.45312 -0.122637,-0.16772 -0.459436,-0.28825 -0.765183,-0.27385 -0.505648,0.0238 -0.511574,0.0322 -0.07993,0.11301 0.25641,0.048 0.67184,0.24903 0.923181,0.44674 0.251341,0.1977 0.679384,0.35075 0.951212,0.34012 0.426175,-0.0167 0.404418,-0.0405 -0.157993,-0.1729 z m 3.523517,-0.51287 c -0.04792,-0.18388 -0.09027,-0.0792 -0.09412,0.23264 -0.0039,0.31183 0.03535,0.46227 0.08712,0.33432 0.05177,-0.12795 0.05492,-0.38308 0.007,-0.56696 z m -19.089664,0.10271 c -0.06033,-0.15076 -0.105111,-0.10598 -0.114178,0.11418 -0.0082,0.19923 0.03646,0.31084 0.09926,0.24805 0.0628,-0.0628 0.06951,-0.2258 0.01492,-0.36223 z m 0.188989,-0.94494 c -0.06033,-0.15076 -0.105113,-0.10598 -0.114181,0.11418 -0.0082,0.19922 0.03646,0.31085 0.09926,0.24805 0.0628,-0.0628 0.06951,-0.22581 0.01492,-0.36223 z m 18.720864,-3.88606 c -0.03636,-0.70162 -0.06611,-0.12757 -0.06611,1.27567 0,1.40324 0.02975,1.97729 0.06611,1.27567 0.03636,-0.70162 0.03636,-1.84972 0,-2.55134 z m -18.531877,2.94113 c -0.06033,-0.15076 -0.105111,-0.10598 -0.114178,0.11418 -0.0082,0.19922 0.03646,0.31084 0.09926,0.24804 0.0628,-0.0628 0.06951,-0.2258 0.0149,-0.36222 z m 3.477715,-0.74033 c -0.09959,-0.24896 -0.18646,-0.35331 -0.193048,-0.23188 -0.01601,0.29494 0.20415,0.85451 0.298908,0.75975 0.04136,-0.0414 -0.0063,-0.27891 -0.10586,-0.52787 z m 25.71147,0.37406 c -1.334984,-0.2218 -2.211597,-0.65407 -2.690601,-1.32677 -1.16132,-1.63092 -4.961506,-2.01168 -4.868317,-0.48778 l 0.02574,0.42087 0.08195,-0.42564 c 0.119409,-0.62014 0.726451,-0.86444 1.85783,-0.74768 1.244108,0.12841 2.302531,0.67406 2.974232,1.53331 0.568883,0.72773 1.794155,1.22705 2.972009,1.21115 0.515276,-0.007 0.437295,-0.0462 -0.352846,-0.17746 z M 78.134107,159.4251 c 1.49724,-0.96288 2.25761,-2.14736 2.25761,-3.51684 0,-1.29037 -1.267677,-1.8077 -3.466859,-1.41479 -2.126965,0.38001 -3.5257,1.59367 -3.5257,3.05919 0,0.8315 0.515292,1.4982 1.556176,2.01343 1.139647,0.56411 2.152197,0.51921 3.178773,-0.14099 z m 19.166982,0.35327 c 0.804937,-0.30603 1.422472,-1.1091 1.422472,-1.84984 0,-0.50647 -0.15099,-0.80119 -0.653034,-1.27468 -0.618996,-0.58379 -2.090285,-1.23656 -2.73517,-1.21351 -0.163383,0.006 0.225988,0.17641 0.865272,0.37904 2.762541,0.87566 3.178119,2.82269 0.82069,3.845 -0.730211,0.31666 -0.500002,0.41046 0.27977,0.11399 z M 66.34671,159.36304 c -0.06033,-0.15076 -0.105111,-0.10598 -0.114181,0.11418 -0.0082,0.19922 0.03646,0.31084 0.09926,0.24804 0.0628,-0.0628 0.06951,-0.2258 0.01492,-0.36222 z m 3.725897,-4.012 c 0.5504,-0.93919 1.236541,-1.5258 2.779416,-2.37626 0.560782,-0.30911 0.929558,-0.56356 0.819499,-0.56544 -0.306416,-0.005 -2.378048,1.28096 -2.982753,1.85189 -0.911088,0.8602 -1.312532,1.86699 -1.370198,3.43635 l -0.05209,1.41741 0.152982,-1.45525 c 0.1084,-1.03113 0.298749,-1.70397 0.65314,-2.3087 z m -3.53691,3.06706 c -0.06033,-0.15076 -0.105111,-0.10598 -0.114179,0.11418 -0.0082,0.19922 0.03646,0.31084 0.09926,0.24805 0.0628,-0.0628 0.06951,-0.22581 0.01492,-0.36223 z m 36.470763,-0.2008 c -0.0524,-0.12993 -0.0953,-0.0236 -0.0953,0.23623 0,0.25986 0.0429,0.36617 0.0953,0.23624 0.0524,-0.12993 0.0524,-0.34254 0,-0.47247 z m -36.281774,-0.74414 c -0.06033,-0.15076 -0.105111,-0.10598 -0.114178,0.11418 -0.0082,0.19922 0.03646,0.31084 0.09926,0.24805 0.0628,-0.0628 0.06951,-0.22581 0.01492,-0.36223 z m 36.470764,-0.2008 c -0.0524,-0.12993 -0.0953,-0.0236 -0.0953,0.23623 0,0.25986 0.0429,0.36617 0.0953,0.23624 0.0524,-0.12993 0.0524,-0.34254 0,-0.47247 z m -36.281777,-0.74414 c -0.06033,-0.15077 -0.105111,-0.10599 -0.114179,0.11418 -0.0082,0.19922 0.03646,0.31084 0.09926,0.24804 0.0628,-0.0628 0.06951,-0.2258 0.01492,-0.36222 z m 36.096727,0 c -0.0603,-0.15077 -0.10511,-0.10599 -0.11418,0.11418 -0.008,0.19922 0.0365,0.31084 0.0993,0.24804 0.0628,-0.0628 0.0695,-0.2258 0.0149,-0.36222 z m -35.907738,-0.75596 c -0.06033,-0.15076 -0.105111,-0.10598 -0.114178,0.11418 -0.0082,0.19923 0.03646,0.31085 0.09926,0.24805 0.0628,-0.0628 0.06951,-0.2258 0.01492,-0.36223 z m 35.404308,-0.43114 c -0.48864,-0.79062 -1.22922,-1.37935 -2.595951,-2.06362 -1.588792,-0.79546 -1.419109,-0.55966 0.229951,0.31954 1.17607,0.62703 1.63785,0.99819 2.07887,1.67093 0.6609,1.00813 0.90311,1.06984 0.28713,0.0731 z M 84.49909,153.3086 c -0.03992,-0.44451 -0.07315,-0.12784 -0.07384,0.70371 -7.94e-4,0.83155 0.03198,1.19524 0.07259,0.8082 0.04061,-0.38704 0.04117,-1.0674 0.0013,-1.51191 z m 10.393526,2.00694 c -0.0628,-0.0628 -0.225803,-0.0695 -0.362228,-0.0149 -0.150762,0.0603 -0.105981,0.10511 0.114181,0.11418 0.199224,0.008 0.310846,-0.0365 0.248047,-0.0993 z m -27.600965,-0.48821 c -0.06033,-0.15076 -0.105114,-0.10598 -0.114181,0.11418 -0.0082,0.19923 0.03646,0.31085 0.09926,0.24805 0.0628,-0.0628 0.06951,-0.2258 0.01492,-0.36223 z m 26.518221,0.18566 c -3.977729,-1.70207 -4.674764,-2.32605 -5.23459,-4.68594 l -0.246581,-1.03943 0.09122,0.8983 c 0.216509,2.1321 1.745814,3.65024 4.817536,4.78239 0.802447,0.29575 1.238772,0.32981 0.572418,0.0447 z m -26.329234,-1.1306 c -0.06033,-0.15076 -0.105111,-0.10598 -0.114179,0.11418 -0.0082,0.19923 0.03646,0.31085 0.09926,0.24805 0.0628,-0.0628 0.06951,-0.2258 0.0149,-0.36223 z m 0.188989,-0.94494 c -0.06033,-0.15076 -0.105111,-0.10598 -0.114181,0.11418 -0.0082,0.19922 0.03646,0.31085 0.09926,0.24805 0.0628,-0.0628 0.06951,-0.22581 0.01492,-0.36223 z m 30.864947,-0.23242 c 0,-0.0434 -0.956752,-0.3952 -2.126118,-0.78181 -2.745549,-0.90775 -3.13999,-1.11829 -3.4559,-1.84463 -0.143999,-0.33109 -0.265147,-0.4579 -0.269216,-0.28179 -0.01733,0.74999 0.834155,1.31845 3.213158,2.14512 2.395575,0.83244 2.638076,0.90259 2.638076,0.76311 z m -30.675961,-0.71252 c -0.06033,-0.15076 -0.105111,-0.10598 -0.114178,0.11418 -0.0082,0.19922 0.03646,0.31085 0.09926,0.24805 0.0628,-0.0628 0.06951,-0.2258 0.01492,-0.36223 z m 7.619413,0.0354 c 0.379815,-0.12164 0.398349,-0.1524 0.09449,-0.15687 -0.207886,-0.003 -0.548063,0.0675 -0.755951,0.15687 -0.481584,0.20694 0.01527,0.20694 0.661458,0 z m 8.828815,-1.27567 c -0.0433,-0.28585 -0.07873,-0.052 -0.07873,0.51971 0,0.57169 0.03543,0.80556 0.07873,0.51972 0.0433,-0.28584 0.0433,-0.75359 0,-1.03943 z m -6.889089,0.95364 c -0.232444,-0.0449 -0.657666,-0.046 -0.94494,-0.003 -0.287272,0.0434 -0.09709,0.0801 0.422624,0.0816 0.519718,0.001 0.754761,-0.0341 0.522316,-0.079 z m 1.70189,-0.17992 c -0.127949,-0.0518 -0.383082,-0.0549 -0.566962,-0.007 -0.18388,0.0479 -0.07919,0.0903 0.232638,0.0941 0.31183,0.004 0.462277,-0.0354 0.334324,-0.0871 z m -11.072039,-0.47843 c -0.06033,-0.15076 -0.105111,-0.10598 -0.114179,0.11418 -0.0082,0.19923 0.03646,0.31085 0.09926,0.24805 0.0628,-0.0628 0.06951,-0.2258 0.01492,-0.36223 z m 11.998504,0.10064 c 0.692957,-0.62712 0.204021,-1.82205 -1.211683,-2.96127 -0.864978,-0.69606 -2.399249,-0.90689 -3.278237,-0.45047 -0.634709,0.32957 -2.088952,1.45665 -1.879484,1.45665 0.07729,0 0.450427,-0.24282 0.829188,-0.53962 1.025414,-0.8035 1.430388,-0.97228 2.332824,-0.97228 1.061042,0 1.984131,0.50308 2.749803,1.49862 0.718564,0.9343 0.781252,1.57574 0.194183,1.98694 -0.231013,0.16181 -0.344016,0.2942 -0.251116,0.2942 0.0929,0 0.324435,-0.14075 0.514522,-0.31277 z m -11.809518,-1.04558 c -0.06033,-0.15076 -0.105111,-0.10598 -0.114178,0.11418 -0.0082,0.19922 0.03646,0.31084 0.09926,0.24805 0.0628,-0.0628 0.06951,-0.22581 0.01492,-0.36223 z m 34.644711,-0.15355 c 0.20789,-0.20789 0.37259,-0.52681 0.366,-0.70871 -0.008,-0.23352 -0.0668,-0.19343 -0.19841,0.13641 -0.2582,0.647 -0.49164,0.75507 -1.63832,0.75839 -1.32543,0.004 -2.248574,-0.40045 -3.129903,-1.37076 -0.490286,-0.53978 -0.604412,-0.61543 -0.351126,-0.23275 0.823632,1.24442 1.862177,1.77693 3.487099,1.78799 0.8413,0.006 1.17203,-0.0779 1.46466,-0.37057 z m -18.797048,-1.04671 c -0.07312,-0.58519 -0.170598,-1.02632 -0.216633,-0.98029 -0.04603,0.046 -0.02705,0.56567 0.04218,1.15474 0.06924,0.58908 0.166719,1.03021 0.216635,0.98029 0.04991,-0.0499 0.03093,-0.56954 -0.04218,-1.15474 z m -15.658674,0.25532 c -0.06033,-0.15076 -0.105111,-0.10598 -0.114178,0.11418 -0.0082,0.19922 0.03646,0.31084 0.09926,0.24804 0.0628,-0.0628 0.06951,-0.2258 0.01492,-0.36222 z m 2.539553,0.22395 c -0.641548,-0.15146 -0.959487,-0.4502 -0.964866,-0.90661 -0.01032,-0.87646 1.909781,-2.82259 3.313922,-3.35883 0.467143,-0.17841 0.814123,-0.3596 0.77107,-0.40265 -0.148834,-0.14883 -1.486297,0.51111 -2.409971,1.18915 -0.91908,0.67467 -1.866902,1.99383 -1.866902,2.59832 0,0.4934 0.702548,1.07207 1.27567,1.05073 0.484314,-0.018 0.476213,-0.0296 -0.118923,-0.17011 z m 1.728917,0.0655 c -0.127949,-0.0518 -0.383085,-0.0549 -0.566965,-0.007 -0.18388,0.0479 -0.07919,0.0903 0.232641,0.0941 0.31183,0.004 0.462274,-0.0353 0.334324,-0.0871 z m 21.210318,-1.39143 c 0.31183,-0.2046 0.454115,-0.37256 0.316193,-0.37325 -0.375759,-0.002 -1.356868,1.05337 -1.347105,1.44888 0.006,0.24287 0.07605,0.18974 0.236236,-0.17918 0.125243,-0.28844 0.482846,-0.69184 0.794676,-0.89645 z m -4.582991,-0.70979 c 0.107598,-0.13244 0.151895,-0.28454 0.09844,-0.338 -0.135461,-0.13546 -0.903618,1.54004 -0.892585,1.94691 0.005,0.18303 0.141658,-0.0499 0.303768,-0.51766 0.162113,-0.46775 0.382784,-0.95881 0.490379,-1.09125 z m 13.476615,0.5459 c -0.1624,-0.31403 -0.61405,-0.88201 -1.00367,-1.26219 -0.70029,-0.6833 -2.421419,-1.78123 -2.787277,-1.77804 -0.103941,8e-4 0.278757,0.25903 0.850448,0.5736 1.297429,0.71391 2.580499,1.95401 2.880709,2.78424 0.12578,0.34784 0.25712,0.54714 0.29187,0.4429 0.0347,-0.10425 -0.0697,-0.44647 -0.23208,-0.76051 z m -34.183422,0.32093 c -0.06033,-0.15076 -0.105114,-0.10598 -0.114181,0.11418 -0.0082,0.19922 0.03646,0.31085 0.09926,0.24804 0.0628,-0.0628 0.06951,-0.2258 0.01492,-0.36222 z M 97.12829,147.7697 c -0.234209,-0.17715 -0.746702,-0.26705 -1.417413,-0.24865 l -1.05056,0.0288 1.165635,0.11292 c 0.641102,0.0621 1.229326,0.17671 1.307169,0.25467 0.07784,0.0779 0.19114,0.13903 0.251775,0.13572 0.06064,-0.003 -0.05484,-0.13087 -0.256606,-0.28348 z m -28.324736,-0.50189 c -0.06033,-0.15076 -0.105111,-0.10598 -0.114178,0.11418 -0.0082,0.19922 0.03646,0.31084 0.09926,0.24805 0.0628,-0.0628 0.06951,-0.22581 0.0149,-0.36223 z m 14.989948,0.22497 c 0,-0.2475 -1.316392,-1.70144 -1.540471,-1.70144 -0.09547,0 0.122973,0.26037 0.485418,0.5786 0.362448,0.31823 0.711317,0.74346 0.775266,0.94494 0.123979,0.39063 0.279787,0.4897 0.279787,0.1779 z m -14.800959,-1.16991 c -0.06033,-0.15077 -0.105111,-0.10598 -0.11418,0.11418 -0.0082,0.19922 0.03646,0.31084 0.09926,0.24804 0.0628,-0.0628 0.06951,-0.2258 0.01492,-0.36222 z m 22.774415,-1.21406 c 0.344028,-0.17927 0.965682,-0.43352 1.381456,-0.56501 0.415772,-0.1315 0.585862,-0.2447 0.377976,-0.25158 -0.571683,-0.0189 -2.565638,1.00884 -3.260045,1.68031 -0.867545,0.83888 -0.76553,0.94444 0.13045,0.13497 0.409567,-0.37002 1.026139,-0.81943 1.370163,-0.99869 z m -22.585428,0.26912 c -0.06033,-0.15077 -0.105111,-0.10598 -0.114178,0.11418 -0.0082,0.19922 0.03646,0.31084 0.09926,0.24804 0.0628,-0.0628 0.06951,-0.2258 0.01492,-0.36222 z m 11.210187,-0.53153 c -0.155917,-0.10076 -0.411049,-0.17853 -0.566965,-0.17281 -0.18692,0.007 -0.154731,0.0657 0.0945,0.17281 0.519543,0.22325 0.817933,0.22325 0.472469,0 z m -11.021198,-0.41341 c -0.06033,-0.15077 -0.105111,-0.10598 -0.114178,0.11418 -0.0082,0.19922 0.03646,0.31084 0.09926,0.24804 0.0628,-0.0628 0.06951,-0.2258 0.01492,-0.36222 z m 29.164055,0.22442 c -0.155916,-0.10076 -0.411049,-0.17852 -0.566965,-0.17281 -0.18692,0.007 -0.154731,0.0657 0.09449,0.17281 0.519547,0.22326 0.817936,0.22326 0.472472,0 z m -23.674697,-0.11418 c -0.0628,-0.0628 -0.2258,-0.0695 -0.362228,-0.0149 -0.150759,0.0603 -0.105978,0.10511 0.114181,0.11418 0.199226,0.008 0.310846,-0.0365 0.248047,-0.0993 z m 4.535715,0 c -0.0628,-0.0628 -0.225803,-0.0695 -0.362228,-0.0149 -0.150762,0.0603 -0.105981,0.10511 0.114181,0.11418 0.199224,0.008 0.310846,-0.0365 0.248047,-0.0993 z m -0.941004,-0.20508 c -0.181901,-0.0475 -0.479557,-0.0475 -0.661458,0 -0.181901,0.0475 -0.03307,0.0864 0.330729,0.0864 0.363802,0 0.51263,-0.0389 0.330729,-0.0864 z m 18.993305,0.005 c -0.129931,-0.0524 -0.342543,-0.0524 -0.472471,0 -0.129929,0.0524 -0.02363,0.0953 0.236235,0.0953 0.259858,0 0.366165,-0.0429 0.236236,-0.0953 z m -1.417412,-0.20149 c -0.389787,-0.0408 -1.027623,-0.0408 -1.41741,0 -0.389787,0.0408 -0.07087,0.0741 0.708705,0.0741 0.779576,0 1.098494,-0.0334 0.708705,-0.0741 z m -26.470975,-0.65372 c -0.06033,-0.15076 -0.105111,-0.10598 -0.114178,0.11418 -0.0082,0.19923 0.03646,0.31085 0.09926,0.24805 0.0628,-0.0628 0.06951,-0.2258 0.01492,-0.36223 z m 0.377978,-1.88988 c -0.06033,-0.15076 -0.105113,-0.10598 -0.114181,0.11418 -0.0082,0.19922 0.03646,0.31085 0.09926,0.24805 0.0628,-0.0628 0.06951,-0.22581 0.01492,-0.36223 z m 0.188987,-0.94494 c -0.06033,-0.15076 -0.105111,-0.10598 -0.114178,0.11418 -0.0082,0.19922 0.03646,0.31085 0.09926,0.24805 0.0628,-0.0628 0.06951,-0.22581 0.0149,-0.36223 z m 0.188989,-0.94494 c -0.06033,-0.15076 -0.105111,-0.10598 -0.114181,0.11418 -0.0082,0.19922 0.03646,0.31085 0.09926,0.24805 0.0628,-0.0628 0.06951,-0.22581 0.01492,-0.36223 z m 0.188987,-0.94494 c -0.06033,-0.15076 -0.105111,-0.10598 -0.114179,0.11418 -0.0082,0.19922 0.03646,0.31084 0.09926,0.24805 0.0628,-0.0628 0.06951,-0.22581 0.01492,-0.36223 z"
       id="path1580"
       inkscape:connector-curvature="0" />
    <path
       style="opacity:0;fill:#00ffff;fill-opacity:1;stroke:#ffffff;stroke-width:0;stroke-miterlimit:4;stroke-dasharray:none;stroke-dashoffset:0;stroke-opacity:1"
       d="m 83.982491,168.89178 c 0,-0.15134 5.96315,-30.05718 6.141783,-30.80171 l 0.102024,-0.42522 h 8.973335 c 4.935327,0 8.973337,0.0653 8.973337,0.14509 0,0.15134 -5.96315,30.05718 -6.14179,30.80171 l -0.10202,0.42522 h -8.973336 c -4.935334,0 -8.973333,-0.0653 -8.973333,-0.14509 z m 14.202545,-5.8798 c 2.102204,-0.72326 3.261234,-1.5118 4.113614,-2.79866 0.80105,-1.20936 1.04519,-2.54153 0.68627,-3.74466 -0.59204,-1.98454 -2.04673,-2.99373 -6.525957,-4.52738 -1.401445,-0.47985 -2.73445,-0.99456 -2.96223,-1.14381 -0.55894,-0.36623 -0.702305,-0.91258 -0.444468,-1.69382 0.305218,-0.92483 1.192879,-1.42243 2.537438,-1.42243 1.272151,0 1.901971,0.29491 2.638148,1.2353 0.714695,0.91296 1.821639,1.40116 3.188789,1.40638 1.78013,0.007 2.21302,-0.79633 1.34497,-2.49526 -0.752,-1.4718 -3.377583,-3.11123 -5.701752,-3.56021 -4.419476,-0.85374 -8.576548,1.84378 -8.610203,5.58715 -0.02379,2.64513 1.851705,4.2738 6.439567,5.59212 2.922039,0.83965 3.645352,1.35227 3.645352,2.5835 0,0.64054 -0.55191,1.22335 -1.55566,1.64274 -1.410978,0.58955 -3.071394,0.2164 -4.193754,-0.94246 -0.977633,-1.00943 -1.779104,-1.41547 -3.053593,-1.54701 -0.770787,-0.0796 -1.13034,-0.0269 -1.508644,0.22099 -0.436713,0.28615 -0.481394,0.40904 -0.370102,1.01799 0.394833,2.16032 2.650937,4.07434 5.716119,4.8494 1.336641,0.33798 3.180054,0.2342 4.616096,-0.25987 z"
       id="path1582"
       inkscape:connector-curvature="0" />
    <path
       style="opacity:0;fill:#00ffff;fill-opacity:1;stroke:#ffffff;stroke-width:0;stroke-miterlimit:4;stroke-dasharray:none;stroke-dashoffset:0;stroke-opacity:1"
       d="m 83.982491,168.89178 c 0,-0.15134 5.96315,-30.05718 6.141783,-30.80171 l 0.102024,-0.42522 h 8.973335 c 4.935327,0 8.973337,0.0653 8.973337,0.14509 0,0.15134 -5.96315,30.05718 -6.14179,30.80171 l -0.10202,0.42522 h -8.973336 c -4.935334,0 -8.973333,-0.0653 -8.973333,-0.14509 z m 14.202545,-5.8798 c 2.102204,-0.72326 3.261234,-1.5118 4.113614,-2.79866 0.80105,-1.20936 1.04519,-2.54153 0.68627,-3.74466 -0.59204,-1.98454 -2.04673,-2.99373 -6.525957,-4.52738 -1.401445,-0.47985 -2.73445,-0.99456 -2.96223,-1.14381 -0.55894,-0.36623 -0.702305,-0.91258 -0.444468,-1.69382 0.305218,-0.92483 1.192879,-1.42243 2.537438,-1.42243 1.272151,0 1.901971,0.29491 2.638148,1.2353 0.714695,0.91296 1.821639,1.40116 3.188789,1.40638 1.78013,0.007 2.21302,-0.79633 1.34497,-2.49526 -0.752,-1.4718 -3.377583,-3.11123 -5.701752,-3.56021 -4.419476,-0.85374 -8.576548,1.84378 -8.610203,5.58715 -0.02379,2.64513 1.851705,4.2738 6.439567,5.59212 2.922039,0.83965 3.645352,1.35227 3.645352,2.5835 0,0.64054 -0.55191,1.22335 -1.55566,1.64274 -1.410978,0.58955 -3.071394,0.2164 -4.193754,-0.94246 -0.977633,-1.00943 -1.779104,-1.41547 -3.053593,-1.54701 -0.770787,-0.0796 -1.13034,-0.0269 -1.508644,0.22099 -0.436713,0.28615 -0.481394,0.40904 -0.370102,1.01799 0.394833,2.16032 2.650937,4.07434 5.716119,4.8494 1.336641,0.33798 3.180054,0.2342 4.616096,-0.25987 z"
       id="path1584"
       inkscape:connector-curvature="0" />
    <path
       style="opacity:0;fill:#00ffff;fill-opacity:1;stroke:#ffffff;stroke-width:0;stroke-miterlimit:4;stroke-dasharray:none;stroke-dashoffset:0;stroke-opacity:1"
       d="m 83.982491,168.89178 c 0,-0.15134 5.96315,-30.05718 6.141783,-30.80171 l 0.102024,-0.42522 h 8.973335 c 4.935327,0 8.973337,0.0653 8.973337,0.14509 0,0.15134 -5.96315,30.05718 -6.14179,30.80171 l -0.10202,0.42522 h -8.973336 c -4.935334,0 -8.973333,-0.0653 -8.973333,-0.14509 z m 14.202545,-5.8798 c 2.102204,-0.72326 3.261234,-1.5118 4.113614,-2.79866 0.80105,-1.20936 1.04519,-2.54153 0.68627,-3.74466 -0.59204,-1.98454 -2.04673,-2.99373 -6.525957,-4.52738 -1.401445,-0.47985 -2.73445,-0.99456 -2.96223,-1.14381 -0.55894,-0.36623 -0.702305,-0.91258 -0.444468,-1.69382 0.305218,-0.92483 1.192879,-1.42243 2.537438,-1.42243 1.272151,0 1.901971,0.29491 2.638148,1.2353 0.714695,0.91296 1.821639,1.40116 3.188789,1.40638 1.78013,0.007 2.21302,-0.79633 1.34497,-2.49526 -0.752,-1.4718 -3.377583,-3.11123 -5.701752,-3.56021 -4.419476,-0.85374 -8.576548,1.84378 -8.610203,5.58715 -0.02379,2.64513 1.851705,4.2738 6.439567,5.59212 2.922039,0.83965 3.645352,1.35227 3.645352,2.5835 0,0.64054 -0.55191,1.22335 -1.55566,1.64274 -1.410978,0.58955 -3.071394,0.2164 -4.193754,-0.94246 -0.977633,-1.00943 -1.779104,-1.41547 -3.053593,-1.54701 -0.770787,-0.0796 -1.13034,-0.0269 -1.508644,0.22099 -0.436713,0.28615 -0.481394,0.40904 -0.370102,1.01799 0.394833,2.16032 2.650937,4.07434 5.716119,4.8494 1.336641,0.33798 3.180054,0.2342 4.616096,-0.25987 z"
       id="path1586"
       inkscape:connector-curvature="0" />
    <path
       style="opacity:0;fill:#ffffff;fill-opacity:1;stroke:#ffffff;stroke-width:0;stroke-miterlimit:4;stroke-dasharray:none;stroke-dashoffset:0;stroke-opacity:1"
       d="m 83.982491,168.89178 c 0,-0.15134 5.96315,-30.05718 6.141783,-30.80171 l 0.102024,-0.42522 h 8.973335 c 4.935327,0 8.973337,0.0653 8.973337,0.14509 0,0.15134 -5.96315,30.05718 -6.14179,30.80171 l -0.10202,0.42522 h -8.973336 c -4.935334,0 -8.973333,-0.0653 -8.973333,-0.14509 z m 14.202545,-5.8798 c 2.102204,-0.72326 3.261234,-1.5118 4.113614,-2.79866 0.80105,-1.20936 1.04519,-2.54153 0.68627,-3.74466 -0.59204,-1.98454 -2.04673,-2.99373 -6.525957,-4.52738 -1.401445,-0.47985 -2.73445,-0.99456 -2.96223,-1.14381 -0.55894,-0.36623 -0.702305,-0.91258 -0.444468,-1.69382 0.305218,-0.92483 1.192879,-1.42243 2.537438,-1.42243 1.272151,0 1.901971,0.29491 2.638148,1.2353 0.714695,0.91296 1.821639,1.40116 3.188789,1.40638 1.78013,0.007 2.21302,-0.79633 1.34497,-2.49526 -0.752,-1.4718 -3.377583,-3.11123 -5.701752,-3.56021 -4.419476,-0.85374 -8.576548,1.84378 -8.610203,5.58715 -0.02379,2.64513 1.851705,4.2738 6.439567,5.59212 2.922039,0.83965 3.645352,1.35227 3.645352,2.5835 0,0.64054 -0.55191,1.22335 -1.55566,1.64274 -1.410978,0.58955 -3.071394,0.2164 -4.193754,-0.94246 -0.977633,-1.00943 -1.779104,-1.41547 -3.053593,-1.54701 -0.770787,-0.0796 -1.13034,-0.0269 -1.508644,0.22099 -0.436713,0.28615 -0.481394,0.40904 -0.370102,1.01799 0.394833,2.16032 2.650937,4.07434 5.716119,4.8494 1.336641,0.33798 3.180054,0.2342 4.616096,-0.25987 z"
       id="path1588"
       inkscape:connector-curvature="0" />
    <path
       style="opacity:0;fill:#ffffff;fill-opacity:1;stroke:#ffffff;stroke-width:0;stroke-miterlimit:4;stroke-dasharray:none;stroke-dashoffset:0;stroke-opacity:1"
       d="m 73.151217,162.91837 c -2.6122,-1.10206 -3.722323,-2.56987 -3.719756,-4.91826 0.0024,-2.10085 0.839134,-3.48379 2.833767,-4.68302 1.53235,-0.92129 2.709719,-1.26812 5.323398,-1.56817 2.801151,-0.32157 3.379337,-0.89749 2.377868,-2.36857 -0.797922,-1.17207 -1.733761,-1.76172 -2.932218,-1.8475 -0.999416,-0.0715 -1.157335,-0.025 -2.028719,0.59724 -1.34474,0.96032 -2.089621,1.27177 -3.091757,1.29273 -1.187884,0.0248 -1.705462,-0.17081 -1.836875,-0.69441 -0.151537,-0.60378 0.295339,-1.38897 1.336918,-2.34907 1.022988,-0.94295 2.399586,-1.59851 4.03048,-1.91937 2.673864,-0.52605 6.741023,0.79999 7.905721,2.57754 0.604007,0.92183 0.980615,4.75747 1.283274,13.06967 l 0.09806,2.69309 -1.272135,-0.005 c -1.552802,-0.005 -2.701803,-0.25406 -2.988804,-0.64656 -0.326216,-0.44612 -0.90864,-0.35935 -2.599442,0.3873 -2.049621,0.90509 -3.249496,1.00218 -4.719777,0.38188 z m 4.98289,-3.49326 c 1.497242,-0.96288 2.25761,-2.14736 2.25761,-3.51684 0,-1.29037 -1.267677,-1.8077 -3.466859,-1.41479 -2.126965,0.38001 -3.5257,1.59367 -3.5257,3.05919 0,0.8315 0.515292,1.4982 1.556173,2.01343 1.13965,0.56411 2.1522,0.5192 3.178776,-0.14099 z"
       id="path1590"
       inkscape:connector-curvature="0" />
    <path
       style="opacity:0;fill:#ffffff;fill-opacity:1;stroke:#ffffff;stroke-width:0;stroke-miterlimit:4;stroke-dasharray:none;stroke-dashoffset:0;stroke-opacity:1"
       d="m 56.386473,162.92423 c -1.781913,-0.62912 -2.865498,-1.32392 -4.035308,-2.58745 -1.613339,-1.7426 -2.324386,-4.06508 -2.138797,-6.98592 0.257252,-4.04866 2.313073,-7.41904 5.194814,-8.51655 2.923452,-1.1134 6.73545,-0.33616 8.67587,1.76895 1.272532,1.38053 1.78698,2.72571 2.136161,5.58563 0.109757,0.89894 0.243194,1.91084 0.296529,2.24865 l 0.09697,0.61421 -4.308043,0.006 c -4.411372,0.006 -6.900281,0.20296 -7.357348,0.58229 -0.636389,0.52816 -0.07779,1.7018 1.227156,2.57831 1.224671,0.82259 2.806229,1.23675 4.382637,1.14768 1.088922,-0.0615 1.419299,-0.16809 2.15152,-0.69393 1.009468,-0.72495 1.33676,-0.68435 2.174418,0.26969 1.06713,1.21539 0.642781,2.08638 -1.540976,3.16288 -2.689828,1.32598 -4.812966,1.57619 -6.955605,0.81972 z m 5.84766,-11.56141 c 0.249407,-0.25006 -0.521976,-1.92413 -1.141437,-2.47715 -1.894951,-1.6917 -6.399043,-0.43866 -6.402654,1.78123 -0.0013,0.79918 0.86011,0.98693 4.289832,0.93497 1.763184,-0.0267 3.143621,-0.12812 3.254259,-0.23905 z"
       id="path1592"
       inkscape:connector-curvature="0" />
    <path
       style="opacity:0;fill:#ffffff;fill-opacity:1;stroke:#ffffff;stroke-width:0;stroke-miterlimit:4;stroke-dasharray:none;stroke-dashoffset:0;stroke-opacity:1"
       d="m 73.151217,162.91837 c -2.6122,-1.10206 -3.722323,-2.56987 -3.719756,-4.91826 0.0024,-2.10085 0.839134,-3.48379 2.833767,-4.68302 1.53235,-0.92129 2.709719,-1.26812 5.323398,-1.56817 2.801151,-0.32157 3.379337,-0.89749 2.377868,-2.36857 -0.797922,-1.17207 -1.733761,-1.76172 -2.932218,-1.8475 -0.999416,-0.0715 -1.157335,-0.025 -2.028719,0.59724 -1.34474,0.96032 -2.089621,1.27177 -3.091757,1.29273 -1.187884,0.0248 -1.705462,-0.17081 -1.836875,-0.69441 -0.151537,-0.60378 0.295339,-1.38897 1.336918,-2.34907 1.022988,-0.94295 2.399586,-1.59851 4.03048,-1.91937 2.673864,-0.52605 6.741023,0.79999 7.905721,2.57754 0.604007,0.92183 0.980615,4.75747 1.283274,13.06967 l 0.09806,2.69309 -1.272135,-0.005 c -1.552802,-0.005 -2.701803,-0.25406 -2.988804,-0.64656 -0.326216,-0.44612 -0.90864,-0.35935 -2.599442,0.3873 -2.049621,0.90509 -3.249496,1.00218 -4.719777,0.38188 z m 4.98289,-3.49326 c 1.497242,-0.96288 2.25761,-2.14736 2.25761,-3.51684 0,-1.29037 -1.267677,-1.8077 -3.466859,-1.41479 -2.126965,0.38001 -3.5257,1.59367 -3.5257,3.05919 0,0.8315 0.515292,1.4982 1.556173,2.01343 1.13965,0.56411 2.1522,0.5192 3.178776,-0.14099 z"
       id="path1594"
       inkscape:connector-curvature="0" />
    <path
       style="opacity:0;fill:#ffffff;fill-opacity:1;stroke:#ffffff;stroke-width:0;stroke-miterlimit:4;stroke-dasharray:none;stroke-dashoffset:0;stroke-opacity:1"
       d="m 93.471484,163.07322 c -2.397173,-0.64525 -4.418666,-2.11854 -5.166942,-3.76573 -0.704303,-1.5504 -0.282761,-2.1115 1.451821,-1.93247 1.253099,0.12933 2.061774,0.54724 3.014073,1.55763 0.605028,0.64194 0.968076,0.84889 1.818428,1.03658 1.399016,0.3088 2.776352,0.003 3.573407,-0.79449 1.226222,-1.22622 0.368874,-2.83323 -1.853139,-3.47352 -4.69065,-1.35165 -6.413677,-2.27397 -7.227245,-3.86869 -1.254265,-2.45857 0.0082,-5.37156 2.95714,-6.82333 2.839035,-1.39765 6.955832,-0.71199 9.444183,1.57296 0.85653,0.78651 1.5743,1.98575 1.58293,2.64471 0.008,0.61383 -0.53753,0.9114 -1.663,0.90704 -1.35251,-0.005 -2.43035,-0.48386 -3.117052,-1.38417 -0.692706,-0.90819 -1.410242,-1.25751 -2.583021,-1.25751 -1.724504,0 -2.637526,0.63317 -2.929009,2.03123 -0.211283,1.01339 0.510392,1.54348 3.400131,2.4975 3.250951,1.07326 5.267671,2.11726 5.974301,3.09273 2.22179,3.0671 0.0141,6.70249 -4.834799,7.96115 -1.369607,0.35552 -2.51719,0.35504 -3.842207,-0.002 z"
       id="path1596"
       inkscape:connector-curvature="0" />
    <path
       style="opacity:0;fill:#ffffff;fill-opacity:1;stroke:#ffffff;stroke-width:0;stroke-miterlimit:4;stroke-dasharray:none;stroke-dashoffset:0;stroke-opacity:1"
       d="m 112.99216,163.10165 c -4.14464,-1.02385 -6.02137,-3.57476 -6.27614,-8.53074 -0.22581,-4.39256 0.8403,-7.14471 3.4114,-8.80649 2.49528,-1.61278 5.51792,-1.93204 7.80464,-0.82437 1.28684,0.62334 3.97049,3.19522 4.47839,4.29186 0.54492,1.1766 0.74445,2.75732 0.62726,4.9694 -0.22124,4.17612 -1.55026,6.65331 -4.31951,8.05122 -2.08817,1.05411 -3.8429,1.31432 -5.72604,0.84912 z m 3.78971,-4.20211 c 1.93959,-1.00287 2.88302,-4.97349 1.86637,-7.85498 -1.33309,-3.77838 -5.8355,-3.95358 -7.47047,-0.29071 -0.37002,0.82897 -0.44119,1.29901 -0.43616,2.88049 0.009,2.8895 0.74041,4.53767 2.38355,5.37261 1.00391,0.51013 2.55022,0.4647 3.65671,-0.10741 z"
       id="path1598"
       inkscape:connector-curvature="0" />
    <path
       style="opacity:0;fill:#ffffff;fill-opacity:1;stroke:#ffffff;stroke-width:0;stroke-miterlimit:4;stroke-dasharray:none;stroke-dashoffset:0;stroke-opacity:1"
       d="m 56.386473,162.92423 c -1.781913,-0.62912 -2.865498,-1.32392 -4.035308,-2.58745 -1.613339,-1.7426 -2.324386,-4.06508 -2.138797,-6.98592 0.257252,-4.04866 2.313073,-7.41904 5.194814,-8.51655 2.923452,-1.1134 6.73545,-0.33616 8.67587,1.76895 1.272532,1.38053 1.78698,2.72571 2.136161,5.58563 0.109757,0.89894 0.243194,1.91084 0.296529,2.24865 l 0.09697,0.61421 -4.308043,0.006 c -4.411372,0.006 -6.900281,0.20296 -7.357348,0.58229 -0.636389,0.52816 -0.07779,1.7018 1.227156,2.57831 1.224671,0.82259 2.806229,1.23675 4.382637,1.14768 1.088922,-0.0615 1.419299,-0.16809 2.15152,-0.69393 1.009468,-0.72495 1.33676,-0.68435 2.174418,0.26969 1.06713,1.21539 0.642781,2.08638 -1.540976,3.16288 -2.689828,1.32598 -4.812966,1.57619 -6.955605,0.81972 z m 5.84766,-11.56141 c 0.249407,-0.25006 -0.521976,-1.92413 -1.141437,-2.47715 -1.894951,-1.6917 -6.399043,-0.43866 -6.402654,1.78123 -0.0013,0.79918 0.86011,0.98693 4.289832,0.93497 1.763184,-0.0267 3.143621,-0.12812 3.254259,-0.23905 z"
       id="path1600"
       inkscape:connector-curvature="0" />
    <path
       style="opacity:0;fill:#ffffff;fill-opacity:1;stroke:#ffffff;stroke-width:0;stroke-miterlimit:4;stroke-dasharray:none;stroke-dashoffset:0;stroke-opacity:1"
       d="m 56.386473,162.92423 c -1.781913,-0.62912 -2.865498,-1.32392 -4.035308,-2.58745 -1.613339,-1.7426 -2.324386,-4.06508 -2.138797,-6.98592 0.257252,-4.04866 2.313073,-7.41904 5.194814,-8.51655 2.923452,-1.1134 6.73545,-0.33616 8.67587,1.76895 1.272532,1.38053 1.78698,2.72571 2.136161,5.58563 0.109757,0.89894 0.243194,1.91084 0.296529,2.24865 l 0.09697,0.61421 -4.308043,0.006 c -4.411372,0.006 -6.900281,0.20296 -7.357348,0.58229 -0.636389,0.52816 -0.07779,1.7018 1.227156,2.57831 1.224671,0.82259 2.806229,1.23675 4.382637,1.14768 1.088922,-0.0615 1.419299,-0.16809 2.15152,-0.69393 1.009468,-0.72495 1.33676,-0.68435 2.174418,0.26969 1.06713,1.21539 0.642781,2.08638 -1.540976,3.16288 -2.689828,1.32598 -4.812966,1.57619 -6.955605,0.81972 z m 5.84766,-11.56141 c 0.249407,-0.25006 -0.521976,-1.92413 -1.141437,-2.47715 -1.894951,-1.6917 -6.399043,-0.43866 -6.402654,1.78123 -0.0013,0.79918 0.86011,0.98693 4.289832,0.93497 1.763184,-0.0267 3.143621,-0.12812 3.254259,-0.23905 z"
       id="path1602"
       inkscape:connector-curvature="0" />
    <path
       inkscape:connector-curvature="0"
       id="path1604"
       d="m 56.386473,162.92423 c -1.781913,-0.62912 -2.865498,-1.32392 -4.035308,-2.58745 -1.613339,-1.7426 -2.324386,-4.06508 -2.138797,-6.98592 0.257252,-4.04866 2.313073,-7.41904 5.194814,-8.51655 2.923452,-1.1134 6.73545,-0.33616 8.67587,1.76895 1.272532,1.38053 1.78698,2.72571 2.136161,5.58563 0.109757,0.89894 0.243194,1.91084 0.296529,2.24865 l 0.09697,0.61421 -4.308043,0.006 c -4.411372,0.006 -6.900281,0.20296 -7.357348,0.58229 -0.636389,0.52816 -0.07779,1.7018 1.227156,2.57831 1.224671,0.82259 2.806229,1.23675 4.382637,1.14768 1.088922,-0.0615 1.419299,-0.16809 2.15152,-0.69393 1.009468,-0.72495 1.33676,-0.68435 2.174418,0.26969 1.06713,1.21539 0.642781,2.08638 -1.540976,3.16288 -2.689828,1.32598 -4.812966,1.57619 -6.955605,0.81972 z m 5.84766,-11.56141 c 0.249407,-0.25006 -0.521976,-1.92413 -1.141437,-2.47715 -1.894951,-1.6917 -6.399043,-0.43866 -6.402654,1.78123 -0.0013,0.79918 0.86011,0.98693 4.289832,0.93497 1.763184,-0.0267 3.143621,-0.12812 3.254259,-0.23905 z"
       style="opacity:0;fill:#ffffff;fill-opacity:1;stroke:#ffffff;stroke-width:0;stroke-miterlimit:4;stroke-dasharray:none;stroke-dashoffset:0;stroke-opacity:1" />
    <path
       style="opacity:0;fill:#ffffff;fill-opacity:1;stroke:#ffffff;stroke-width:0;stroke-miterlimit:4;stroke-dasharray:none;stroke-dashoffset:0;stroke-opacity:1"
       d="m 56.386473,162.92423 c -1.781913,-0.62912 -2.865498,-1.32392 -4.035308,-2.58745 -1.613339,-1.7426 -2.324386,-4.06508 -2.138797,-6.98592 0.257252,-4.04866 2.313073,-7.41904 5.194814,-8.51655 2.923452,-1.1134 6.73545,-0.33616 8.67587,1.76895 1.272532,1.38053 1.78698,2.72571 2.136161,5.58563 0.109757,0.89894 0.243194,1.91084 0.296529,2.24865 l 0.09697,0.61421 -4.308043,0.006 c -4.411372,0.006 -6.900281,0.20296 -7.357348,0.58229 -0.636389,0.52816 -0.07779,1.7018 1.227156,2.57831 1.224671,0.82259 2.806229,1.23675 4.382637,1.14768 1.088922,-0.0615 1.419299,-0.16809 2.15152,-0.69393 1.009468,-0.72495 1.33676,-0.68435 2.174418,0.26969 1.06713,1.21539 0.642781,2.08638 -1.540976,3.16288 -2.689828,1.32598 -4.812966,1.57619 -6.955605,0.81972 z m 5.84766,-11.56141 c 0.249407,-0.25006 -0.521976,-1.92413 -1.141437,-2.47715 -1.894951,-1.6917 -6.399043,-0.43866 -6.402654,1.78123 -0.0013,0.79918 0.86011,0.98693 4.289832,0.93497 1.763184,-0.0267 3.143621,-0.12812 3.254259,-0.23905 z"
       id="path1606"
       inkscape:connector-curvature="0" />
  </g>
  <g
     inkscape:groupmode="layer"
     id="layer2"
     inkscape:label="Layer 2"
     transform="translate(-31.902235,-132.62866)">
    <rect
       style="fill:#155263;fill-opacity:1;stroke:#ffffff;stroke-width:0;stroke-miterlimit:4;stroke-dasharray:none;stroke-dashoffset:0;stroke-opacity:1"
       id="rect904-9-4"
       width="19.557253"
       height="41.792046"
       x="71.979271"
       y="-175.96396"
       ry="0"
       rx="0"
       transform="matrix(1,0,0.15123298,-0.98849815,0,0)" />
    <rect
       style="fill:#ff9a3b;fill-opacity:1;stroke:#ffffff;stroke-width:0;stroke-miterlimit:4;stroke-dasharray:none;stroke-dashoffset:0;stroke-opacity:1"
       id="rect904-9-2"
       width="19.557253"
       height="41.792046"
       x="128.556"
       y="-175.96396"
       ry="0"
       rx="0"
       transform="matrix(1,0,0.15123298,-0.98849815,0,0)" />
    <rect
       style="fill:#ffc93c;fill-opacity:1;stroke:#ffffff;stroke-width:0;stroke-miterlimit:4;stroke-dasharray:none;stroke-dashoffset:0;stroke-opacity:1"
       id="rect904-9-7"
       width="19.842913"
       height="41.806107"
       x="109.34412"
       y="-176.02316"
       ry="0"
       rx="0"
       transform="matrix(1,0,0.15339033,-0.98816568,0,0)" />
    <rect
       style="fill:#03943c;fill-opacity:1;stroke:#ffffff;stroke-width:0;stroke-miterlimit:4;stroke-dasharray:none;stroke-dashoffset:0;stroke-opacity:1"
       id="rect904-9-4-6"
       width="19.557253"
       height="41.792046"
       x="91.007317"
       y="-175.96393"
       ry="0"
       rx="0"
       transform="matrix(1,0,0.15123298,-0.98849815,0,0)" />
  </g>
  <g
     inkscape:groupmode="layer"
     id="layer3"
     inkscape:label="Layer 3"
     transform="translate(-31.902235,-132.62866)">
    <path
       id="path1619-1"
       style="fill:#ffffff;stroke-width:0.70291835"
       d="m 115.13386,143.78176 c -1.26993,-0.0316 -2.59204,0.2845 -3.95234,0.95026 -3.18906,1.5608 -4.55988,4.23707 -4.55988,8.90457 0,4.55694 1.5211,7.67121 4.371,8.94961 2.88972,1.29618 4.96289,1.28587 7.66731,-0.0379 3.13197,-1.53285 4.57347,-4.43522 4.57347,-9.21051 0,-3.52717 -0.26869,-4.30503 -2.24972,-6.51801 -1.76167,-1.96786 -3.73322,-2.98541 -5.84984,-3.03817 z m -19.656204,0.0232 c -0.5359,-0.009 -1.06782,0.0338 -1.58435,0.13377 -5.37384,1.03978 -7.30047,7.0167 -3.10912,9.64558 1.18694,0.74447 3.18049,1.55148 4.4297,1.79322 2.95422,0.57161 4.2942,2.13305 3.1023,3.61427 -1.26043,1.56638 -4.66197,1.35325 -5.6975,-0.35691 -0.91079,-1.50417 -4.68494,-2.04133 -4.68494,-0.66685 0,1.67375 1.60906,3.68989 3.68856,4.62282 v 6.7e-4 c 2.83498,1.27186 4.79969,1.27906 7.69878,0.0297 3.813544,-1.64339 5.034554,-5.60928 2.524574,-8.198 -0.72326,-0.746 -3.078674,-1.88517 -5.234634,-2.53159 -3.37666,-1.01242 -3.88983,-1.39375 -3.70304,-2.7488 0.30875,-2.23853 4.29771,-2.64112 5.38607,-0.54365 0.86096,1.6592 4.867054,2.1175 4.867054,0.55691 0,-2.73509 -3.932284,-5.29065 -7.683454,-5.35123 z m -37.428608,0.051 c -4.159759,0.10572 -7.33599,3.43156 -7.891079,8.72116 -0.474461,4.52118 1.169514,8.06117 4.553066,9.8045 2.930076,1.50953 4.838026,1.57055 7.89704,0.25229 2.966804,-1.27849 3.623744,-2.41691 2.225904,-3.85863 -0.87102,-0.89835 -1.29849,-0.96112 -1.95107,-0.28805 -2.028136,2.09179 -8.171874,0.24118 -8.171874,-2.46138 0,-0.73003 1.430994,-0.9602 5.973192,-0.9602 h 5.973192 l -0.34971,-3.2024 c -0.4726,-4.32445 -2.05175,-6.56547 -5.341835,-7.58216 -0.863576,-0.26684 -1.703983,-0.40536 -2.510958,-0.42513 -0.136171,-0.004 -0.27168,-0.004 -0.405868,0 z m 18.596021,0.0404 c -0.40432,0.005 -0.79961,0.0401 -1.17762,0.10596 -2.79658,0.48729 -5.52903,2.61709 -5.52903,4.30959 0,1.38777 3.24381,1.36807 4.59731,-0.0279 1.34373,-1.38587 3.32453,-1.36438 4.69687,0.0511 1.905707,1.9655 1.335657,3.16079 -1.50775,3.16199 -3.47541,0.001 -7.27943,2.06168 -8.05191,4.36057 -0.90334,2.68843 -0.005,5.43597 2.17741,6.65709 2.44089,1.36601 3.90822,1.37201 6.42841,0.0278 2.239605,-1.24236 2.041267,-0.40909 2.041267,0.0106 0,0.40271 1.01254,0.36515 2.24974,0.36554 l 2.24972,6.9e-4 -0.24248,-7.31795 c -0.13335,-4.02481 -0.54753,-7.90677 -0.92065,-8.62711 -0.90688,-1.75059 -4.18102,-3.11679 -7.011287,-3.0779 z m -18.162071,3.97715 c 0.123493,-0.004 0.246977,-0.004 0.36928,6.9e-4 1.174127,0.0437 2.266409,0.49011 2.756006,1.43366 0.394073,0.75942 0.716447,1.56257 0.716447,1.78462 0,0.22197 -1.713122,0.40394 -3.806845,0.40394 -2.662097,0 -3.806851,-0.27943 -3.806851,-0.9284 0,-1.61409 1.919566,-2.63336 3.771963,-2.69449 z m 56.444112,0.0523 c 2.50489,0 4.15316,2.26615 4.15316,5.71079 0,1.39578 -0.48463,3.25223 -1.07721,4.12484 -1.44403,2.12627 -4.707,2.12627 -6.15104,0 -0.59259,-0.87261 -1.07721,-2.72906 -1.07721,-4.12484 0,-3.44464 1.64741,-5.71079 4.1523,-5.71079 z m -36.980191,6.42597 c 2.055147,0 2.373107,0.2337 2.373107,1.74422 0,0.99313 -0.66249,2.22265 -1.538387,2.8554 -1.7796,1.2856 -2.50032,1.34452 -4.17188,0.34037 -2.68783,-1.61463 -0.44144,-4.93999 3.33716,-4.93999 z"
       inkscape:connector-curvature="0"
       sodipodi:nodetypes="ccsccscccccccccsccccsccsccccccccsscccccccsccccccscccccccccsssccssccssssccs" />
  </g>
</svg>
